<svg width="24" height="24" viewBox="0 0 24 24" fill="none" xmlns="http://www.w3.org/2000/svg">
<rect width="24" height="24" fill="#E5E5E5"/>
<path opacity="0.2" d="M10.2338 9.03693H9.79066C9.77362 8.94223 9.74189 8.8589 9.69549 8.78693C9.64909 8.71496 9.59227 8.65388 9.52504 8.60369C9.4578 8.5535 9.38252 8.51562 9.29918 8.49006C9.2168 8.46449 9.1292 8.4517 9.0364 8.4517C8.86879 8.4517 8.71869 8.49384 8.58612 8.57812C8.45449 8.66241 8.35032 8.78598 8.27362 8.94886C8.19786 9.11174 8.15998 9.31061 8.15998 9.54545C8.15998 9.7822 8.19786 9.98201 8.27362 10.1449C8.35032 10.3078 8.45496 10.4309 8.58754 10.5142C8.72011 10.5975 8.86926 10.6392 9.03498 10.6392C9.12683 10.6392 9.21396 10.6269 9.29634 10.6023C9.37968 10.5767 9.45496 10.5393 9.52219 10.4901C9.58943 10.4408 9.64625 10.3807 9.69265 10.3097C9.74 10.2377 9.77267 10.1553 9.79066 10.0625L10.2338 10.0639C10.2102 10.2069 10.1642 10.3385 10.0961 10.4588C10.0288 10.5781 9.94218 10.6813 9.83612 10.7685C9.731 10.8546 9.61074 10.9214 9.47532 10.9688C9.3399 11.0161 9.19218 11.0398 9.03214 11.0398C8.78024 11.0398 8.55581 10.9801 8.35884 10.8608C8.16187 10.7405 8.00657 10.5687 7.89293 10.3452C7.78024 10.1217 7.7239 9.85511 7.7239 9.54545C7.7239 9.23485 7.78072 8.96828 7.89435 8.74574C8.00799 8.52225 8.16329 8.35085 8.36026 8.23153C8.55723 8.11127 8.78119 8.05114 9.03214 8.05114C9.18649 8.05114 9.33043 8.07339 9.46396 8.1179C9.59843 8.16146 9.71916 8.22585 9.82617 8.31108C9.93318 8.39536 10.0217 8.49858 10.0918 8.62074C10.1619 8.74195 10.2092 8.88068 10.2338 9.03693ZM10.6156 8.46875V8.09091H12.867V8.46875H11.9593V11H11.5218V8.46875H10.6156ZM13.2665 11H12.8006L13.8475 8.09091H14.3546L15.4015 11H14.9355L14.1131 8.61932H14.0904L13.2665 11ZM13.3446 9.8608H14.856V10.2301H13.3446V9.8608ZM4.91886 16H4.45295L5.49982 13.0909H6.00692L7.0538 16H6.58789L5.76545 13.6193H5.74272L4.91886 16ZM4.99698 14.8608H6.50835V15.2301H4.99698V14.8608ZM9.75337 14.0369H9.31019C9.29315 13.9422 9.26142 13.8589 9.21502 13.7869C9.16862 13.715 9.1118 13.6539 9.04457 13.6037C8.97733 13.5535 8.90205 13.5156 8.81871 13.4901C8.73633 13.4645 8.64873 13.4517 8.55593 13.4517C8.38832 13.4517 8.23822 13.4938 8.10565 13.5781C7.97402 13.6624 7.86985 13.786 7.79315 13.9489C7.71739 14.1117 7.67951 14.3106 7.67951 14.5455C7.67951 14.7822 7.71739 14.982 7.79315 15.1449C7.86985 15.3078 7.97449 15.4309 8.10707 15.5142C8.23964 15.5975 8.38879 15.6392 8.55451 15.6392C8.64637 15.6392 8.73349 15.6269 8.81587 15.6023C8.89921 15.5767 8.97449 15.5393 9.04173 15.4901C9.10896 15.4408 9.16578 15.3807 9.21218 15.3097C9.25953 15.2377 9.2922 15.1553 9.31019 15.0625L9.75337 15.0639C9.7297 15.2069 9.68377 15.3385 9.61559 15.4588C9.54835 15.5781 9.46171 15.6813 9.35565 15.7685C9.25053 15.8546 9.13027 15.9214 8.99485 15.9688C8.85943 16.0161 8.71171 16.0398 8.55167 16.0398C8.29978 16.0398 8.07534 15.9801 7.87837 15.8608C7.6814 15.7405 7.5261 15.5687 7.41246 15.3452C7.29978 15.1217 7.24343 14.8551 7.24343 14.5455C7.24343 14.2348 7.30025 13.9683 7.41388 13.7457C7.52752 13.5223 7.68282 13.3509 7.87979 13.2315C8.07676 13.1113 8.30072 13.0511 8.55167 13.0511C8.70603 13.0511 8.84996 13.0734 8.98349 13.1179C9.11796 13.1615 9.2387 13.2259 9.3457 13.3111C9.45271 13.3954 9.54125 13.4986 9.61133 13.6207C9.6814 13.742 9.72875 13.8807 9.75337 14.0369ZM10.1351 13.4688V13.0909H12.3865V13.4688H11.4789V16H11.0414V13.4688H10.1351ZM13.323 13.0909V16H12.8841V13.0909H13.323ZM16.4892 14.5455C16.4892 14.8561 16.4324 15.1231 16.3187 15.3466C16.2051 15.5691 16.0493 15.7405 15.8514 15.8608C15.6544 15.9801 15.4305 16.0398 15.1795 16.0398C14.9276 16.0398 14.7027 15.9801 14.5048 15.8608C14.3078 15.7405 14.1525 15.5687 14.0389 15.3452C13.9252 15.1217 13.8684 14.8551 13.8684 14.5455C13.8684 14.2348 13.9252 13.9683 14.0389 13.7457C14.1525 13.5223 14.3078 13.3509 14.5048 13.2315C14.7027 13.1113 14.9276 13.0511 15.1795 13.0511C15.4305 13.0511 15.6544 13.1113 15.8514 13.2315C16.0493 13.3509 16.2051 13.5223 16.3187 13.7457C16.4324 13.9683 16.4892 14.2348 16.4892 14.5455ZM16.0545 14.5455C16.0545 14.3087 16.0162 14.1094 15.9395 13.9474C15.8637 13.7846 15.7595 13.6615 15.627 13.5781C15.4953 13.4938 15.3462 13.4517 15.1795 13.4517C15.0119 13.4517 14.8623 13.4938 14.7306 13.5781C14.599 13.6615 14.4949 13.7846 14.4181 13.9474C14.3424 14.1094 14.3045 14.3087 14.3045 14.5455C14.3045 14.7822 14.3424 14.982 14.4181 15.1449C14.4949 15.3068 14.599 15.4299 14.7306 15.5142C14.8623 15.5975 15.0119 15.6392 15.1795 15.6392C15.3462 15.6392 15.4953 15.5975 15.627 15.5142C15.7595 15.4299 15.8637 15.3068 15.9395 15.1449C16.0162 14.982 16.0545 14.7822 16.0545 14.5455ZM19.3844 13.0909V16H18.981L17.5023 13.8665H17.4753V16H17.0364V13.0909H17.4426L18.9228 15.2273H18.9498V13.0909H19.3844Z" fill="black"/>
</svg>
