<svg width="19" height="20" viewBox="0 0 19 20" fill="none" xmlns="http://www.w3.org/2000/svg">
<path d="M16.3248 7.4668C16.3248 7.4668 15.7818 14.2018 15.4668 17.0388C15.3168 18.3938 14.4798 19.1878 13.1088 19.2128C10.4998 19.2598 7.88779 19.2628 5.27979 19.2078C3.96079 19.1808 3.13779 18.3768 2.99079 17.0458C2.67379 14.1838 2.13379 7.4668 2.13379 7.4668" stroke="#130F26" stroke-width="1.5" stroke-linecap="round" stroke-linejoin="round"/>
<path d="M17.708 4.23828H0.75" stroke="#130F26" stroke-width="1.5" stroke-linecap="round" stroke-linejoin="round"/>
<path d="M14.4406 4.239C13.6556 4.239 12.9796 3.684 12.8256 2.915L12.5826 1.699C12.4326 1.138 11.9246 0.75 11.3456 0.75H7.11258C6.53358 0.75 6.02558 1.138 5.87558 1.699L5.63258 2.915C5.47858 3.684 4.80258 4.239 4.01758 4.239" stroke="#130F26" stroke-width="1.5" stroke-linecap="round" stroke-linejoin="round"/>
</svg>
