<svg width="130" height="50" viewBox="0 0 130 50" fill="none" xmlns="http://www.w3.org/2000/svg">
<path d="M123.478 37.0664C119.874 37.0664 116.956 39.9593 116.956 43.5314C116.956 47.1036 119.874 49.9965 123.478 49.9965C127.081 49.9965 130 47.1036 130 43.5314C130 39.9593 127.081 37.0664 123.478 37.0664Z" fill="#1F1F1F"/>
<path d="M60.6832 13.3599C50.478 13.3599 42.203 21.5625 42.203 31.6783C42.203 41.7941 50.478 49.9967 60.6832 49.9967C70.8884 49.9967 79.1634 41.7941 79.1634 31.6783C79.1634 21.5625 70.8884 13.3599 60.6832 13.3599ZM60.6832 40.3477C55.8533 40.3477 51.9326 36.4659 51.9326 31.6737C51.9326 26.8815 55.8487 22.9997 60.6832 22.9997C65.5177 22.9997 69.4338 26.8815 69.4338 31.6737C69.4338 36.4659 65.5177 40.3477 60.6832 40.3477Z" fill="#1F1F1F"/>
<path d="M27.2262 15.5411C24.6201 14.1501 21.6411 13.3599 18.4756 13.3599C8.27509 13.3599 0 21.5625 0 31.6782C0 41.794 8.27508 49.9966 18.4802 49.9966C28.6854 49.9966 36.9605 41.794 36.9605 31.6782V0L27.2309 3.00839V15.5411H27.2262ZM18.4756 40.3522C13.6457 40.3522 9.72497 36.4704 9.72497 31.6782C9.72497 26.8861 13.6411 23.0043 18.4756 23.0043C23.3101 23.0043 27.2262 26.8861 27.2262 31.6782C27.2262 36.4704 23.3101 40.3522 18.4756 40.3522Z" fill="#1F1F1F"/>
<path d="M99.0027 0L88.9001 3.02688V10.869H82.0889V20.495H88.9001V36.6414C88.9001 41.9696 90.322 45.6712 93.1705 47.7415C96.0143 49.8118 100.909 50.4588 107.856 49.6824V40.6018C105.926 40.7081 104.303 40.7173 102.998 40.6387C101.693 40.5602 100.7 40.2136 100.024 39.5897C99.343 38.9705 99.0073 37.9862 99.0073 36.6414V20.495H107.856V10.869H99.0073V0H99.0027Z" fill="#1F1F1F"/>
</svg>
